<svg xmlns="http://www.w3.org/2000/svg" width="760" height="380" viewBox="-20 -20 760 380">
  <path d="M 255 62.5 C 205 62.5, 102.5 80, 102.5 130" fill="none" stroke="#8b5cf6" stroke-width="2" opacity="0.7"/>
  <circle cx="102.5" cy="130" r="3.5" fill="#8b5cf6" opacity="0.7"/>
  <text x="178.75" y="88.25" text-anchor="middle" fill="#8b5cf6" font-size="10" font-family="ui-sans-serif, system-ui, sans-serif" opacity="0.8">30 RPC methods</text>
  <path d="M 255 172.5 C 246.5 172.5, 183.5 164, 175 164" fill="none" stroke="#38bdf8" stroke-width="2" opacity="0.7"/>
  <circle cx="175" cy="164" r="3.5" fill="#38bdf8" opacity="0.7"/>
  <text x="215" y="160.25" text-anchor="middle" fill="#38bdf8" font-size="10" font-family="ui-sans-serif, system-ui, sans-serif" opacity="0.8">runs</text>
  <path d="M 465 172.5 C 473.5 172.5, 501.5 164, 510 164" fill="none" stroke="#fbbf24" stroke-width="2" opacity="0.7"/>
  <circle cx="510" cy="164" r="3.5" fill="#fbbf24" opacity="0.7"/>
  <text x="487.5" y="160.25" text-anchor="middle" fill="#fbbf24" font-size="10" font-family="ui-sans-serif, system-ui, sans-serif" opacity="0.8">Vision scans</text>
  <path d="M 360 215 C 360 215, 360 240, 360 240" fill="none" stroke="#34d399" stroke-width="2" opacity="0.7"/>
  <circle cx="360" cy="240" r="3.5" fill="#34d399" opacity="0.7"/>
  <text x="360" y="219.5" text-anchor="middle" fill="#34d399" font-size="10" font-family="ui-sans-serif, system-ui, sans-serif" opacity="0.8">calls</text>
  <path d="M 465 282.5 C 473.5 282.5, 501.5 274, 510 274" fill="none" stroke="#71717a" stroke-width="2" stroke-dasharray="6 3" opacity="0.7"/>
  <circle cx="510" cy="274" r="3.5" fill="#71717a" opacity="0.7"/>
  <text x="487.5" y="270.25" text-anchor="middle" fill="#71717a" font-size="10" font-family="ui-sans-serif, system-ui, sans-serif" opacity="0.8">optional</text>
  <rect x="255" y="20" width="210" height="85" rx="12" fill="#8b5cf6"/>
  <text x="360" y="62.5" text-anchor="middle" fill="#ffffff" font-size="13" font-weight="600" font-family="ui-sans-serif, system-ui, sans-serif">AI Agents / Scripts</text>
  <text x="360" y="79.5" text-anchor="middle" fill="#ffffff" opacity="0.75" font-size="11" font-family="ui-sans-serif, system-ui, sans-serif">Daemon API consumers</text>
  <rect x="255" y="130" width="210" height="85" rx="12" fill="#60a5fa"/>
  <text x="360" y="172.5" text-anchor="middle" fill="#ffffff" font-size="13" font-weight="600" font-family="ui-sans-serif, system-ui, sans-serif">Menu Bar App</text>
  <text x="360" y="189.5" text-anchor="middle" fill="#ffffff" opacity="0.75" font-size="11" font-family="ui-sans-serif, system-ui, sans-serif">Swift / AppKit</text>
  <rect x="255" y="240" width="210" height="85" rx="12" fill="#34d399"/>
  <text x="360" y="282.5" text-anchor="middle" fill="#ffffff" font-size="13" font-weight="600" font-family="ui-sans-serif, system-ui, sans-serif">CLI</text>
  <text x="360" y="299.5" text-anchor="middle" fill="#ffffff" opacity="0.75" font-size="11" font-family="ui-sans-serif, system-ui, sans-serif">Node.js</text>
  <rect x="510" y="240" width="145" height="68" rx="12" fill="#71717a"/>
  <text x="582.5" y="274" text-anchor="middle" fill="#ffffff" font-size="13" font-weight="600" font-family="ui-sans-serif, system-ui, sans-serif">tmux</text>
  <text x="582.5" y="291" text-anchor="middle" fill="#ffffff" opacity="0.75" font-size="11" font-family="ui-sans-serif, system-ui, sans-serif">optional</text>
  <rect x="510" y="130" width="145" height="68" rx="12" fill="#fbbf24"/>
  <text x="582.5" y="164" text-anchor="middle" fill="#1f2937" font-size="13" font-weight="600" font-family="ui-sans-serif, system-ui, sans-serif">OCR Engine</text>
  <text x="582.5" y="181" text-anchor="middle" fill="#1f2937" opacity="0.75" font-size="11" font-family="ui-sans-serif, system-ui, sans-serif">Vision + FTS5</text>
  <rect x="30" y="130" width="145" height="68" rx="12" fill="#38bdf8"/>
  <text x="102.5" y="164" text-anchor="middle" fill="#ffffff" font-size="13" font-weight="600" font-family="ui-sans-serif, system-ui, sans-serif">Daemon</text>
  <text x="102.5" y="181" text-anchor="middle" fill="#ffffff" opacity="0.75" font-size="11" font-family="ui-sans-serif, system-ui, sans-serif">WebSocket :9399</text>
</svg>