<svg xmlns="http://www.w3.org/2000/svg" viewBox="15 35 590 590" style="display:block;width:100%;height:auto" width="512" height="512" role="img" aria-labelledby="_R_0_-title"><title id="_R_0_-title">Action logo</title><defs><pattern id="_R_0_-grid" width="20" height="20" patternUnits="userSpaceOnUse"><path d="M20 0H0V20" fill="none" stroke="#367b7c" stroke-opacity=".14" stroke-width=".5"></path></pattern><mask id="_R_0_-gap" maskUnits="userSpaceOnUse" x="0" y="0" width="720" height="640"><path d="M0 0H720V640H0Z" fill="white"></path><path d="M -23.662015831524982 0 L 500 -244.18760826712423 L 500 244.18760826712423 Z" transform="translate(378.02667529115377 404.9783920951129) rotate(35)" fill="black"></path></mask></defs><path d="M265 100H335L530.0930354263446 500H69.90696457365542Z M300 245L221.97332470884623 404.9783920951129H378.02667529115377Z" fill="#f4efe6" fill-rule="evenodd" mask="url(#_R_0_-gap)"></path><path d="M 0 0 C 0 -2 3 -3 8 -3.730461265239989 L 170 -79.27230188634977 Q 180 -83.93537846789975 175 -73.93537846789975 L 140 -26 Q 124 0 140 26 L 175 73.93537846789975 Q 180 83.93537846789975 170 79.27230188634977 L 8 3.730461265239989 C 3 3 0 2 0 0 Z" transform="translate(378.02667529115377 404.9783920951129) rotate(35)" fill="#c58a70"></path></svg>